<svg xmlns="http://www.w3.org/2000/svg" width="280" height="121.361"><g fill="#19181C"><path d="M102.256 40.145h1.338v13.386h-1.338v-13.386zM106.675 53.532v-13.387h.291l8.913 10.262v-10.262h1.322v13.386h-.302l-8.838-10.138v10.138h-1.386zM120.46 53.532v-13.387h.291l8.913 10.262v-10.262h1.322v13.386h-.302l-8.838-10.138v10.138h-1.386z"/></g><path fill="#231F20" d="M1.386 70.064h6.189v44.319h18.285v5.978h-24.474v-50.297z"/><path fill="#231F20" d="M39.279.008h6.189v89.415h22.586v5.978h-28.775v-95.393z"/><path fill="#231F20" d="M116.316 13.297c9.377 0 17.228 3.129 23.546 9.388 6.318 6.259 9.475 13.958 9.475 23.109 0 9.065-3.151 16.753-9.458 23.066-6.302 6.313-13.991 9.469-23.061 9.469-9.183 0-16.931-3.14-23.249-9.426s-9.475-13.888-9.475-22.812c0-5.951 1.441-11.46 4.316-16.543 2.876-5.077 6.798-9.059 11.773-11.935 4.97-2.881 10.349-4.316 16.133-4.316zm.276 6.016c-4.581 0-8.924 1.192-13.03 3.583-4.106 2.385-7.306 5.601-9.615 9.647-2.304 4.047-3.459 8.552-3.459 13.521 0 7.36 2.552 13.57 7.651 18.642 5.099 5.066 11.25 7.602 18.447 7.602 4.807 0 9.253-1.165 13.343-3.496s7.279-5.52 9.572-9.561c2.293-4.047 3.437-8.536 3.437-13.478 0-4.915-1.144-9.361-3.437-13.332-2.288-3.977-5.514-7.154-9.674-9.539-4.16-2.396-8.568-3.589-13.235-3.589z"/><path fill="#231F20" d="M159.74 20.198h7.117l15.847 25.537 15.593-25.537h7.154l-19.613 32.325v48.884h-6.102v-48.884l-19.996-32.325z"/><path fill="#231F20" d="M245.335 43.539h-2.676l-.572-12.037h3.847l-.599 12.037z"/><path fill="#231F20" d="M276.818 58.803c-1.468-2.277-4.068-4.775-7.948-7.635-3.874-2.865-5.126-3.89-5.487-4.236-.95-.95-1.608-1.824-1.953-2.601-.335-.755-.507-1.549-.507-2.352 0-1.29.448-2.347 1.37-3.232.933-.89 2.12-1.327 3.626-1.327 1.192 0 2.261.291 3.264.896 1.036.62 2.347 1.975 3.896 4.025l.572.755 5.029-3.815-.55-.75c-2.056-2.8-4.047-4.77-5.935-5.843-1.915-1.09-3.998-1.64-6.194-1.64-2.072 0-4.025.491-5.795 1.451-1.786.971-3.189 2.325-4.176 4.02-.982 1.689-1.484 3.583-1.484 5.628 0 2.574.836 4.991 2.477 7.181.95 1.306 3.216 3.307 6.939 6.119 3.496 2.633 5.924 4.899 7.214 6.734.874 1.241 1.3 2.46 1.3 3.723 0 1.117-.286 2.142-.874 3.14-.583.993-1.414 1.764-2.541 2.363-1.133.599-2.358.906-3.647.906-3.005 0-5.746-2.239-8.147-6.658l-.469-.869-5.309 3.183.437.799c1.872 3.421 3.971 5.903 6.226 7.386 2.288 1.5 4.867 2.261 7.672 2.261 3.653 0 6.804-1.257 9.356-3.739 2.563-2.493 3.863-5.471 3.863-8.859.019-2.352-.736-4.71-2.225-7.014z"/><path fill="#231F20" d="M216.544 59.737c5.919 0 8.261.604 9.016.874 2.013.707 3.475 1.834 4.586 3.539 1.192 1.84 1.781 4.063 1.781 6.809 0 2.336-.453 4.273-1.397 5.924-.879 1.549-1.932 2.628-3.216 3.302-.815.426-2.8 1.138-7.003 1.138h-4.608v-21.586h.841m0-6.205h-7.052v33.997h10.818c4.235 0 7.532-.615 9.885-1.851 2.347-1.23 4.257-3.14 5.73-5.73s2.207-5.584 2.207-8.989c0-3.944-.928-7.343-2.784-10.192-1.861-2.849-4.435-4.851-7.732-6.011-2.304-.814-5.989-1.224-11.072-1.224z"/></svg>